<svg xmlns="http://www.w3.org/2000/svg" xmlns:xlink="http://www.w3.org/1999/xlink" width="500" zoomAndPan="magnify" viewBox="0 0 375 374.999991" height="500" preserveAspectRatio="xMidYMid meet" version="1.0"><defs><g/><clipPath id="a4cb82c999"><path d="M 72.335938 112.226562 L 302.585938 112.226562 L 302.585938 174.476562 L 72.335938 174.476562 Z M 72.335938 112.226562 " clip-rule="nonzero"/></clipPath></defs><rect x="-37.5" width="450" fill="#ffffff" y="-37.499999" height="449.999989" fill-opacity="1"/><rect x="-37.5" width="450" fill="#ffffff" y="-37.499999" height="449.999989" fill-opacity="1"/><rect x="-37.5" width="450" fill="#ffffff" y="-37.499999" height="449.999989" fill-opacity="1"/><g clip-path="url(#a4cb82c999)"><path fill="#000000" d="M 207.261719 174.46875 C 206.730469 168.722656 205.214844 163.25 202.707031 158.046875 C 202.597656 157.816406 202.527344 157.578125 202.5 157.324219 C 202.46875 157.070312 202.480469 156.820312 202.535156 156.574219 C 202.589844 156.324219 202.679688 156.089844 202.8125 155.871094 C 202.941406 155.65625 203.105469 155.464844 203.300781 155.300781 C 203.492188 155.132812 203.710938 155.003906 203.945312 154.914062 C 204.183594 154.820312 204.429688 154.765625 204.683594 154.753906 C 204.9375 154.742188 205.1875 154.769531 205.429688 154.839844 C 205.675781 154.910156 205.902344 155.015625 206.113281 155.160156 C 212.144531 159.335938 219.796875 163.960938 227.523438 166.839844 C 233.609375 169.105469 237.589844 171.101562 240.1875 172.726562 C 240.847656 173.125 241.226562 173.707031 241.324219 174.46875 L 302.585938 174.46875 L 302.394531 167.234375 C 302.386719 167.039062 302.347656 166.851562 302.269531 166.671875 C 302.191406 166.492188 302.085938 166.335938 301.949219 166.199219 C 301.808594 166.058594 301.652344 165.953125 301.472656 165.875 C 301.292969 165.796875 301.105469 165.757812 300.910156 165.753906 L 293.070312 165.640625 C 292.847656 165.632812 292.636719 165.675781 292.4375 165.765625 L 287.925781 167.742188 C 287.714844 167.835938 287.496094 167.878906 287.265625 167.871094 L 256.929688 166.882812 C 256.847656 166.890625 256.765625 166.890625 256.683594 166.882812 C 191.738281 154.371094 203.367188 105.949219 119.246094 112.914062 C 86.441406 115.632812 72.335938 143.539062 72.335938 174.054688 C 72.335938 174.195312 72.335938 174.332031 72.335938 174.46875 Z M 178.25 152.539062 C 178.765625 152.539062 179.261719 152.636719 179.738281 152.835938 C 180.214844 153.03125 180.632812 153.3125 181 153.675781 C 181.363281 154.039062 181.644531 154.460938 181.84375 154.9375 C 182.039062 155.410156 182.136719 155.90625 182.136719 156.421875 C 182.136719 156.9375 182.039062 157.433594 181.84375 157.90625 C 181.644531 158.382812 181.363281 158.804688 181 159.167969 C 180.632812 159.53125 180.214844 159.8125 179.738281 160.007812 C 179.261719 160.207031 178.765625 160.304688 178.25 160.304688 C 177.734375 160.304688 177.238281 160.207031 176.761719 160.007812 C 176.285156 159.8125 175.863281 159.53125 175.496094 159.167969 C 175.132812 158.804688 174.851562 158.382812 174.65625 157.90625 C 174.457031 157.433594 174.359375 156.9375 174.359375 156.421875 C 174.359375 155.90625 174.457031 155.410156 174.65625 154.9375 C 174.851562 154.460938 175.132812 154.039062 175.496094 153.675781 C 175.863281 153.3125 176.285156 153.03125 176.761719 152.835938 C 177.238281 152.636719 177.734375 152.539062 178.25 152.539062 Z M 178.25 165.457031 C 178.765625 165.457031 179.261719 165.554688 179.738281 165.75 C 180.214844 165.949219 180.632812 166.230469 181 166.59375 C 181.363281 166.957031 181.644531 167.378906 181.84375 167.851562 C 182.039062 168.328125 182.136719 168.824219 182.136719 169.339844 C 182.136719 169.851562 182.039062 170.347656 181.84375 170.824219 C 181.644531 171.300781 181.363281 171.71875 181 172.082031 C 180.632812 172.449219 180.214844 172.726562 179.738281 172.925781 C 179.261719 173.121094 178.765625 173.222656 178.25 173.222656 C 177.734375 173.222656 177.238281 173.121094 176.761719 172.925781 C 176.285156 172.726562 175.863281 172.449219 175.496094 172.082031 C 175.132812 171.71875 174.851562 171.300781 174.65625 170.824219 C 174.457031 170.347656 174.359375 169.851562 174.359375 169.339844 C 174.359375 168.824219 174.457031 168.328125 174.65625 167.851562 C 174.851562 167.378906 175.132812 166.957031 175.496094 166.59375 C 175.863281 166.230469 176.285156 165.949219 176.761719 165.75 C 177.238281 165.554688 177.734375 165.457031 178.25 165.457031 Z M 163.550781 139.660156 C 164.066406 139.660156 164.5625 139.761719 165.039062 139.957031 C 165.515625 140.15625 165.9375 140.433594 166.300781 140.800781 C 166.664062 141.164062 166.945312 141.582031 167.144531 142.058594 C 167.339844 142.535156 167.441406 143.03125 167.441406 143.546875 C 167.4375 144.0625 167.339844 144.554688 167.144531 145.03125 C 166.945312 145.507812 166.664062 145.925781 166.296875 146.292969 C 165.933594 146.65625 165.511719 146.9375 165.035156 147.132812 C 164.558594 147.328125 164.0625 147.425781 163.546875 147.425781 C 163.03125 147.425781 162.535156 147.328125 162.058594 147.128906 C 161.582031 146.933594 161.160156 146.652344 160.796875 146.285156 C 160.429688 145.921875 160.152344 145.5 159.953125 145.027344 C 159.757812 144.550781 159.660156 144.054688 159.660156 143.539062 C 159.660156 143.023438 159.757812 142.53125 159.957031 142.054688 C 160.15625 141.578125 160.4375 141.160156 160.800781 140.796875 C 161.164062 140.433594 161.585938 140.152344 162.0625 139.957031 C 162.539062 139.761719 163.035156 139.660156 163.550781 139.660156 Z M 163.550781 152.539062 C 164.066406 152.539062 164.5625 152.636719 165.039062 152.835938 C 165.515625 153.03125 165.933594 153.3125 166.300781 153.675781 C 166.664062 154.039062 166.945312 154.460938 167.144531 154.9375 C 167.339844 155.410156 167.441406 155.90625 167.441406 156.421875 C 167.441406 156.9375 167.339844 157.433594 167.144531 157.90625 C 166.945312 158.382812 166.664062 158.804688 166.300781 159.167969 C 165.933594 159.53125 165.515625 159.8125 165.039062 160.007812 C 164.5625 160.207031 164.066406 160.304688 163.550781 160.304688 C 163.035156 160.304688 162.539062 160.207031 162.0625 160.007812 C 161.585938 159.8125 161.164062 159.53125 160.800781 159.167969 C 160.433594 158.804688 160.152344 158.382812 159.957031 157.90625 C 159.757812 157.433594 159.660156 156.9375 159.660156 156.421875 C 159.660156 155.90625 159.757812 155.410156 159.957031 154.9375 C 160.152344 154.460938 160.433594 154.039062 160.800781 153.675781 C 161.164062 153.3125 161.585938 153.03125 162.0625 152.835938 C 162.539062 152.636719 163.035156 152.539062 163.550781 152.539062 Z M 163.550781 165.457031 C 164.066406 165.457031 164.5625 165.554688 165.039062 165.75 C 165.515625 165.949219 165.933594 166.230469 166.300781 166.59375 C 166.664062 166.957031 166.945312 167.378906 167.144531 167.851562 C 167.339844 168.328125 167.441406 168.824219 167.441406 169.339844 C 167.441406 169.851562 167.339844 170.347656 167.144531 170.824219 C 166.945312 171.300781 166.664062 171.71875 166.300781 172.082031 C 165.933594 172.449219 165.515625 172.726562 165.039062 172.925781 C 164.5625 173.121094 164.066406 173.222656 163.550781 173.222656 C 163.035156 173.222656 162.539062 173.121094 162.0625 172.925781 C 161.585938 172.726562 161.164062 172.449219 160.800781 172.082031 C 160.433594 171.71875 160.152344 171.300781 159.957031 170.824219 C 159.757812 170.347656 159.660156 169.851562 159.660156 169.339844 C 159.660156 168.824219 159.757812 168.328125 159.957031 167.851562 C 160.152344 167.378906 160.433594 166.957031 160.800781 166.59375 C 161.164062 166.230469 161.585938 165.949219 162.0625 165.75 C 162.539062 165.554688 163.035156 165.457031 163.550781 165.457031 Z M 148.867188 126.929688 C 149.382812 126.925781 149.878906 127.023438 150.355469 127.222656 C 150.832031 127.417969 151.253906 127.699219 151.617188 128.0625 C 151.984375 128.425781 152.265625 128.847656 152.464844 129.320312 C 152.660156 129.796875 152.761719 130.292969 152.761719 130.808594 C 152.761719 131.324219 152.660156 131.820312 152.464844 132.296875 C 152.265625 132.769531 151.984375 133.191406 151.621094 133.554688 C 151.257812 133.917969 150.835938 134.199219 150.359375 134.398438 C 149.882812 134.59375 149.386719 134.691406 148.867188 134.691406 C 148.351562 134.691406 147.855469 134.59375 147.378906 134.394531 C 146.902344 134.199219 146.480469 133.917969 146.117188 133.554688 C 145.753906 133.1875 145.472656 132.769531 145.273438 132.292969 C 145.078125 131.816406 144.980469 131.320312 144.980469 130.804688 C 144.980469 130.292969 145.078125 129.796875 145.277344 129.320312 C 145.472656 128.847656 145.753906 128.429688 146.117188 128.066406 C 146.484375 127.703125 146.902344 127.421875 147.378906 127.226562 C 147.855469 127.03125 148.351562 126.933594 148.867188 126.933594 Z M 148.867188 139.65625 C 149.382812 139.65625 149.878906 139.753906 150.355469 139.949219 C 150.832031 140.148438 151.253906 140.429688 151.617188 140.792969 C 151.984375 141.15625 152.265625 141.574219 152.464844 142.050781 C 152.660156 142.527344 152.761719 143.023438 152.761719 143.539062 C 152.761719 144.054688 152.660156 144.546875 152.464844 145.023438 C 152.265625 145.5 151.984375 145.921875 151.621094 146.285156 C 151.257812 146.648438 150.835938 146.929688 150.359375 147.125 C 149.882812 147.324219 149.386719 147.421875 148.867188 147.421875 C 148.351562 147.421875 147.855469 147.324219 147.378906 147.125 C 146.902344 146.929688 146.480469 146.648438 146.117188 146.28125 C 145.753906 145.917969 145.472656 145.496094 145.273438 145.019531 C 145.078125 144.546875 144.980469 144.050781 144.980469 143.535156 C 144.980469 143.019531 145.078125 142.527344 145.277344 142.050781 C 145.476562 141.578125 145.753906 141.160156 146.121094 140.796875 C 146.484375 140.433594 146.902344 140.152344 147.378906 139.957031 C 147.855469 139.761719 148.351562 139.660156 148.867188 139.660156 Z M 148.867188 152.535156 C 149.382812 152.535156 149.878906 152.632812 150.355469 152.828125 C 150.832031 153.023438 151.253906 153.304688 151.617188 153.667969 C 151.984375 154.03125 152.265625 154.453125 152.460938 154.925781 C 152.660156 155.402344 152.761719 155.898438 152.761719 156.414062 C 152.761719 156.929688 152.664062 157.425781 152.464844 157.898438 C 152.269531 158.375 151.988281 158.796875 151.621094 159.160156 C 151.257812 159.523438 150.835938 159.804688 150.359375 160.003906 C 149.882812 160.199219 149.386719 160.300781 148.871094 160.300781 C 148.355469 160.300781 147.859375 160.199219 147.382812 160.003906 C 146.90625 159.808594 146.484375 159.527344 146.121094 159.164062 C 145.753906 158.796875 145.472656 158.378906 145.277344 157.902344 C 145.078125 157.425781 144.980469 156.933594 144.980469 156.417969 C 144.980469 155.902344 145.078125 155.40625 145.277344 154.933594 C 145.472656 154.457031 145.753906 154.039062 146.117188 153.675781 C 146.484375 153.3125 146.902344 153.03125 147.378906 152.835938 C 147.855469 152.636719 148.351562 152.539062 148.867188 152.539062 Z M 148.867188 165.449219 C 149.382812 165.449219 149.878906 165.546875 150.355469 165.746094 C 150.832031 165.941406 151.253906 166.222656 151.617188 166.585938 C 151.984375 166.949219 152.265625 167.367188 152.460938 167.84375 C 152.660156 168.320312 152.761719 168.816406 152.761719 169.332031 C 152.761719 169.84375 152.664062 170.339844 152.464844 170.816406 C 152.269531 171.292969 151.988281 171.710938 151.621094 172.078125 C 151.257812 172.441406 150.835938 172.722656 150.359375 172.917969 C 149.882812 173.117188 149.386719 173.214844 148.871094 173.214844 C 148.355469 173.214844 147.859375 173.117188 147.382812 172.921875 C 146.90625 172.722656 146.484375 172.445312 146.121094 172.078125 C 145.753906 171.714844 145.472656 171.296875 145.277344 170.820312 C 145.078125 170.34375 144.980469 169.847656 144.980469 169.332031 C 144.980469 168.820312 145.078125 168.324219 145.277344 167.851562 C 145.472656 167.375 145.753906 166.957031 146.117188 166.589844 C 146.484375 166.226562 146.902344 165.949219 147.378906 165.75 C 147.855469 165.554688 148.351562 165.457031 148.867188 165.457031 Z M 134.199219 126.933594 C 134.71875 126.933594 135.214844 127.03125 135.691406 127.226562 C 136.167969 127.421875 136.589844 127.703125 136.953125 128.066406 C 137.320312 128.429688 137.601562 128.851562 137.800781 129.328125 C 137.996094 129.804688 138.097656 130.296875 138.097656 130.8125 C 138.097656 131.328125 137.996094 131.824219 137.800781 132.300781 C 137.601562 132.777344 137.320312 133.195312 136.957031 133.558594 C 136.589844 133.925781 136.171875 134.207031 135.695312 134.402344 C 135.21875 134.597656 134.71875 134.699219 134.203125 134.699219 C 133.6875 134.699219 133.191406 134.597656 132.714844 134.402344 C 132.238281 134.203125 131.816406 133.921875 131.453125 133.558594 C 131.089844 133.195312 130.808594 132.773438 130.609375 132.296875 C 130.414062 131.820312 130.316406 131.324219 130.316406 130.808594 C 130.316406 130.296875 130.414062 129.800781 130.613281 129.328125 C 130.808594 128.851562 131.089844 128.433594 131.453125 128.070312 C 131.816406 127.703125 132.238281 127.425781 132.714844 127.226562 C 133.191406 127.03125 133.6875 126.933594 134.199219 126.933594 Z M 134.199219 139.660156 C 134.71875 139.660156 135.214844 139.757812 135.691406 139.957031 C 136.167969 140.152344 136.589844 140.433594 136.953125 140.796875 C 137.320312 141.160156 137.601562 141.582031 137.800781 142.054688 C 137.996094 142.53125 138.097656 143.027344 138.097656 143.542969 C 138.097656 144.058594 137.996094 144.554688 137.800781 145.03125 C 137.601562 145.503906 137.320312 145.925781 136.957031 146.289062 C 136.589844 146.652344 136.171875 146.933594 135.695312 147.132812 C 135.21875 147.328125 134.71875 147.425781 134.203125 147.425781 C 133.6875 147.425781 133.191406 147.328125 132.714844 147.128906 C 132.238281 146.933594 131.816406 146.652344 131.453125 146.289062 C 131.089844 145.921875 130.808594 145.503906 130.609375 145.027344 C 130.414062 144.550781 130.316406 144.054688 130.316406 143.539062 C 130.316406 143.023438 130.414062 142.53125 130.613281 142.054688 C 130.808594 141.582031 131.089844 141.164062 131.457031 140.800781 C 131.820312 140.4375 132.238281 140.15625 132.714844 139.957031 C 133.191406 139.761719 133.6875 139.664062 134.199219 139.660156 Z M 134.199219 152.539062 C 134.71875 152.539062 135.214844 152.636719 135.691406 152.832031 C 136.167969 153.03125 136.589844 153.308594 136.953125 153.671875 C 137.320312 154.039062 137.601562 154.457031 137.796875 154.933594 C 137.996094 155.40625 138.09375 155.902344 138.097656 156.417969 C 138.097656 156.933594 138 157.429688 137.800781 157.90625 C 137.605469 158.378906 137.324219 158.800781 136.957031 159.164062 C 136.59375 159.53125 136.171875 159.808594 135.695312 160.007812 C 135.21875 160.207031 134.722656 160.304688 134.207031 160.304688 C 133.691406 160.304688 133.195312 160.207031 132.71875 160.007812 C 132.242188 159.8125 131.820312 159.53125 131.457031 159.167969 C 131.089844 158.804688 130.808594 158.382812 130.613281 157.90625 C 130.414062 157.433594 130.316406 156.9375 130.316406 156.421875 C 130.316406 155.90625 130.414062 155.414062 130.613281 154.9375 C 130.808594 154.460938 131.089844 154.042969 131.453125 153.679688 C 131.816406 153.3125 132.238281 153.035156 132.714844 152.835938 C 133.191406 152.640625 133.6875 152.539062 134.199219 152.539062 Z M 134.199219 165.457031 C 134.71875 165.457031 135.214844 165.554688 135.691406 165.75 C 136.167969 165.945312 136.589844 166.226562 136.953125 166.589844 C 137.320312 166.953125 137.601562 167.375 137.796875 167.847656 C 137.996094 168.324219 138.09375 168.820312 138.097656 169.335938 C 138.097656 169.851562 138 170.34375 137.800781 170.820312 C 137.605469 171.296875 137.324219 171.71875 136.957031 172.082031 C 136.59375 172.445312 136.171875 172.726562 135.695312 172.925781 C 135.21875 173.121094 134.722656 173.222656 134.207031 173.222656 C 133.691406 173.222656 133.195312 173.121094 132.71875 172.925781 C 132.242188 172.730469 131.820312 172.449219 131.457031 172.085938 C 131.089844 171.71875 130.808594 171.300781 130.613281 170.824219 C 130.414062 170.347656 130.316406 169.851562 130.316406 169.339844 C 130.316406 168.824219 130.414062 168.328125 130.613281 167.855469 C 130.808594 167.378906 131.089844 166.957031 131.453125 166.59375 C 131.816406 166.230469 132.238281 165.949219 132.714844 165.753906 C 133.191406 165.554688 133.6875 165.457031 134.199219 165.457031 Z M 119.496094 139.660156 C 120.011719 139.660156 120.507812 139.757812 120.988281 139.957031 C 121.464844 140.152344 121.886719 140.433594 122.25 140.796875 C 122.617188 141.160156 122.898438 141.582031 123.09375 142.054688 C 123.292969 142.53125 123.390625 143.027344 123.390625 143.542969 C 123.390625 144.058594 123.292969 144.554688 123.097656 145.03125 C 122.898438 145.503906 122.617188 145.925781 122.253906 146.289062 C 121.886719 146.652344 121.464844 146.933594 120.988281 147.132812 C 120.511719 147.328125 120.015625 147.425781 119.5 147.425781 C 118.984375 147.425781 118.488281 147.328125 118.011719 147.128906 C 117.535156 146.933594 117.113281 146.652344 116.75 146.289062 C 116.382812 145.921875 116.101562 145.503906 115.90625 145.027344 C 115.710938 144.550781 115.609375 144.054688 115.613281 143.539062 C 115.613281 143.023438 115.710938 142.53125 115.910156 142.054688 C 116.105469 141.582031 116.386719 141.164062 116.75 140.800781 C 117.117188 140.4375 117.535156 140.15625 118.011719 139.957031 C 118.488281 139.761719 118.980469 139.664062 119.496094 139.660156 Z M 119.496094 152.539062 C 120.011719 152.539062 120.507812 152.636719 120.988281 152.832031 C 121.464844 153.03125 121.882812 153.308594 122.25 153.671875 C 122.613281 154.039062 122.898438 154.457031 123.09375 154.933594 C 123.292969 155.40625 123.390625 155.902344 123.390625 156.417969 C 123.390625 156.933594 123.292969 157.429688 123.097656 157.90625 C 122.898438 158.378906 122.617188 158.800781 122.253906 159.164062 C 121.890625 159.53125 121.46875 159.808594 120.992188 160.007812 C 120.515625 160.207031 120.019531 160.304688 119.503906 160.304688 C 118.988281 160.304688 118.492188 160.207031 118.015625 160.007812 C 117.539062 159.8125 117.117188 159.53125 116.75 159.167969 C 116.386719 158.804688 116.105469 158.382812 115.910156 157.90625 C 115.710938 157.433594 115.613281 156.9375 115.613281 156.421875 C 115.613281 155.90625 115.710938 155.414062 115.90625 154.9375 C 116.105469 154.460938 116.386719 154.042969 116.75 153.679688 C 117.113281 153.3125 117.535156 153.035156 118.011719 152.835938 C 118.484375 152.640625 118.980469 152.539062 119.496094 152.539062 Z M 119.496094 165.457031 C 120.011719 165.457031 120.507812 165.554688 120.988281 165.75 C 121.464844 165.945312 121.882812 166.226562 122.25 166.589844 C 122.613281 166.953125 122.898438 167.375 123.09375 167.847656 C 123.292969 168.324219 123.390625 168.820312 123.390625 169.335938 C 123.390625 169.851562 123.292969 170.34375 123.097656 170.820312 C 122.898438 171.296875 122.617188 171.71875 122.253906 172.082031 C 121.890625 172.445312 121.46875 172.726562 120.992188 172.925781 C 120.515625 173.121094 120.019531 173.222656 119.503906 173.222656 C 118.988281 173.222656 118.492188 173.121094 118.015625 172.925781 C 117.539062 172.730469 117.117188 172.449219 116.75 172.085938 C 116.386719 171.71875 116.105469 171.300781 115.910156 170.824219 C 115.710938 170.347656 115.613281 169.851562 115.613281 169.339844 C 115.613281 168.824219 115.710938 168.328125 115.90625 167.855469 C 116.105469 167.378906 116.386719 166.957031 116.75 166.59375 C 117.113281 166.230469 117.535156 165.949219 118.011719 165.753906 C 118.484375 165.554688 118.980469 165.457031 119.496094 165.457031 Z M 104.8125 152.539062 C 105.328125 152.539062 105.824219 152.636719 106.300781 152.832031 C 106.777344 153.03125 107.199219 153.308594 107.566406 153.671875 C 107.929688 154.039062 108.210938 154.457031 108.410156 154.933594 C 108.609375 155.40625 108.707031 155.902344 108.707031 156.417969 C 108.707031 156.933594 108.609375 157.429688 108.414062 157.90625 C 108.214844 158.378906 107.933594 158.800781 107.570312 159.164062 C 107.207031 159.53125 106.785156 159.808594 106.308594 160.007812 C 105.832031 160.207031 105.335938 160.304688 104.820312 160.304688 C 104.304688 160.304688 103.808594 160.207031 103.332031 160.007812 C 102.855469 159.8125 102.433594 159.53125 102.066406 159.167969 C 101.703125 158.804688 101.421875 158.382812 101.222656 157.90625 C 101.027344 157.433594 100.929688 156.9375 100.929688 156.421875 C 100.929688 155.90625 101.027344 155.414062 101.222656 154.9375 C 101.421875 154.460938 101.699219 154.042969 102.066406 153.679688 C 102.429688 153.3125 102.851562 153.035156 103.324219 152.835938 C 103.800781 152.640625 104.296875 152.539062 104.8125 152.539062 Z M 104.8125 165.457031 C 105.328125 165.457031 105.824219 165.554688 106.300781 165.75 C 106.777344 165.945312 107.199219 166.226562 107.566406 166.589844 C 107.929688 166.953125 108.210938 167.375 108.410156 167.847656 C 108.609375 168.324219 108.707031 168.820312 108.707031 169.335938 C 108.707031 169.851562 108.609375 170.34375 108.414062 170.820312 C 108.214844 171.296875 107.933594 171.71875 107.570312 172.082031 C 107.207031 172.445312 106.785156 172.726562 106.308594 172.925781 C 105.832031 173.121094 105.335938 173.222656 104.820312 173.222656 C 104.304688 173.222656 103.808594 173.121094 103.332031 172.925781 C 102.855469 172.730469 102.433594 172.449219 102.066406 172.085938 C 101.703125 171.71875 101.421875 171.300781 101.222656 170.824219 C 101.027344 170.347656 100.929688 169.851562 100.929688 169.339844 C 100.929688 168.824219 101.027344 168.328125 101.222656 167.855469 C 101.421875 167.378906 101.699219 166.957031 102.066406 166.59375 C 102.429688 166.230469 102.851562 165.949219 103.324219 165.753906 C 103.800781 165.554688 104.296875 165.457031 104.8125 165.457031 Z M 104.8125 165.457031 " fill-opacity="1" fill-rule="nonzero"/></g><g fill="#000000" fill-opacity="1"><g transform="translate(90.164061, 228.131044)"><g><path d="M 13.765625 -33.820312 C 13.765625 -35.332031 13.703125 -37.027344 13.265625 -38.347656 C 12.824219 -39.605469 12.132812 -40.484375 11.0625 -40.484375 C 9.304688 -40.421875 8.738281 -38.597656 8.738281 -35.894531 C 8.738281 -34.324219 9.429688 -32.691406 10.4375 -30.929688 C 11.441406 -29.167969 12.761719 -27.347656 14.082031 -25.398438 C 15.652344 -23.070312 17.226562 -20.683594 18.417969 -18.355469 C 19.613281 -16.03125 20.429688 -13.640625 20.429688 -11.128906 C 20.429688 -8.046875 19.929688 -5.15625 18.480469 -3.015625 C 17.035156 -0.878906 14.710938 0.503906 11 0.503906 C 6.664062 0.503906 4.210938 -1.132812 2.828125 -3.644531 C 1.445312 -6.160156 1.132812 -9.492188 1.132812 -12.949219 L 7.796875 -13.578125 C 7.796875 -11.628906 7.859375 -9.679688 8.359375 -8.234375 C 8.800781 -6.726562 9.554688 -5.722656 11 -5.722656 C 13.011719 -5.722656 13.765625 -7.859375 13.765625 -10.8125 C 13.765625 -12.320312 13.011719 -14.082031 12.007812 -15.90625 C 11.441406 -16.785156 10.875 -17.726562 10.246094 -18.671875 C 8.925781 -20.558594 7.480469 -22.695312 5.972656 -25.019531 C 4.464844 -27.347656 3.332031 -29.734375 2.640625 -32.1875 C 2.261719 -33.382812 2.074219 -34.636719 2.074219 -35.894531 C 2.074219 -38.410156 2.640625 -41.113281 4.085938 -43.1875 C 5.53125 -45.199219 7.730469 -46.644531 10.9375 -46.707031 C 15.023438 -46.773438 17.414062 -45.074219 18.734375 -42.621094 C 20.054688 -40.109375 20.429688 -37.027344 20.429688 -34.449219 Z M 13.765625 -33.820312 "/></g></g></g><g fill="#000000" fill-opacity="1"><g transform="translate(111.72482, 228.131044)"><g><path d="M 2.515625 -46.207031 L 9.304688 -46.207031 C 12.257812 -46.207031 15.214844 -45.453125 17.476562 -43.3125 C 19.738281 -41.175781 21.25 -37.65625 21.25 -32.375 C 21.25 -27.09375 19.738281 -23.636719 17.476562 -21.5 C 15.214844 -19.363281 12.257812 -18.480469 9.304688 -18.480469 L 9.304688 0 L 2.515625 0 Z M 9.304688 -25.398438 C 11.378906 -25.398438 12.699219 -25.773438 13.453125 -26.84375 C 14.207031 -27.847656 14.394531 -29.546875 14.394531 -32.125 C 14.394531 -34.703125 14.207031 -36.523438 13.453125 -37.65625 C 12.699219 -38.789062 11.378906 -39.289062 9.304688 -39.289062 Z M 9.304688 -25.398438 "/></g></g></g><g fill="#000000" fill-opacity="1"><g transform="translate(133.851318, 228.131044)"><g><path d="M 20.179688 -9.492188 C 20.117188 -7.605469 19.738281 -5.910156 19.046875 -4.464844 C 18.480469 -3.207031 17.601562 -2.011719 16.34375 -1.070312 C 15.085938 -0.0625 13.390625 0.503906 11.128906 0.503906 C 8.863281 0.503906 7.105469 -0.0625 5.847656 -1.070312 C 4.589844 -2.011719 3.773438 -3.207031 3.207031 -4.464844 C 2.515625 -5.910156 2.136719 -7.605469 2.074219 -9.492188 L 2.074219 -36.714844 C 2.136719 -38.535156 2.515625 -40.234375 3.207031 -41.679688 C 3.773438 -42.9375 4.589844 -44.195312 5.847656 -45.136719 C 7.105469 -46.078125 8.863281 -46.707031 11.128906 -46.707031 C 13.390625 -46.707031 15.085938 -46.078125 16.34375 -45.136719 C 17.601562 -44.195312 18.480469 -42.9375 19.046875 -41.679688 C 19.738281 -40.234375 20.117188 -38.535156 20.179688 -36.714844 Z M 13.390625 -36.714844 C 13.390625 -37.96875 13.140625 -38.851562 12.511719 -39.605469 C 12.195312 -39.917969 11.691406 -40.109375 11.128906 -40.109375 C 9.933594 -40.109375 9.367188 -39.226562 9.117188 -38.410156 C 8.925781 -37.90625 8.863281 -37.34375 8.863281 -36.714844 L 8.863281 -9.492188 C 8.863281 -8.171875 9.179688 -7.292969 9.808594 -6.601562 C 10.121094 -6.285156 10.5625 -6.097656 11.128906 -6.097656 C 12.320312 -6.097656 12.886719 -6.851562 13.140625 -7.796875 C 13.328125 -8.234375 13.390625 -8.800781 13.390625 -9.492188 Z M 13.390625 -36.714844 "/></g></g></g><g fill="#000000" fill-opacity="1"><g transform="translate(156.103529, 228.131044)"><g><path d="M 14.648438 0 L 11.128906 -19.488281 L 9.304688 -19.488281 L 9.304688 0 L 2.515625 0 L 2.515625 -46.207031 L 9.304688 -46.207031 C 17.414062 -46.207031 20.871094 -41.617188 20.871094 -32.878906 C 20.871094 -28.289062 19.675781 -24.140625 17.097656 -22.378906 L 21.4375 0 Z M 9.304688 -25.773438 C 10.246094 -25.773438 11.503906 -25.898438 12.511719 -26.78125 C 13.515625 -27.660156 14.332031 -29.359375 14.332031 -32.625 C 14.332031 -35.894531 13.515625 -37.65625 12.511719 -38.535156 C 11.503906 -39.417969 10.246094 -39.480469 9.304688 -39.480469 Z M 9.304688 -25.773438 "/></g></g></g><g fill="#000000" fill-opacity="1"><g transform="translate(178.795755, 228.131044)"><g><path d="M 0.125 -39.226562 L 0.125 -46.207031 L 19.738281 -46.207031 L 19.738281 -39.226562 L 13.328125 -39.226562 L 13.328125 0 L 6.539062 0 L 6.539062 -39.226562 Z M 0.125 -39.226562 "/></g></g></g><g fill="#000000" fill-opacity="1"><g transform="translate(198.659309, 228.131044)"><g><path d="M 20.179688 -15.84375 L 20.179688 -9.492188 C 20.117188 -7.605469 19.738281 -5.910156 19.046875 -4.464844 C 18.480469 -3.207031 17.601562 -2.011719 16.34375 -1.070312 C 15.085938 -0.0625 13.390625 0.503906 11.128906 0.503906 C 8.863281 0.503906 7.105469 -0.0625 5.847656 -1.070312 C 4.589844 -2.011719 3.773438 -3.207031 3.207031 -4.464844 C 2.515625 -5.910156 2.136719 -7.605469 2.074219 -9.492188 L 2.074219 -36.714844 C 2.136719 -38.535156 2.515625 -40.234375 3.207031 -41.679688 C 3.773438 -42.9375 4.589844 -44.195312 5.847656 -45.136719 C 7.105469 -46.078125 8.863281 -46.707031 11.128906 -46.707031 C 13.390625 -46.707031 15.085938 -46.078125 16.34375 -45.136719 C 17.601562 -44.195312 18.480469 -42.9375 19.046875 -41.679688 C 19.738281 -40.234375 20.117188 -38.535156 20.179688 -36.714844 L 20.179688 -30.363281 L 13.832031 -30.363281 L 13.832031 -36.714844 C 13.832031 -37.96875 13.515625 -38.851562 12.824219 -39.605469 C 12.511719 -39.917969 11.945312 -40.109375 11.253906 -40.109375 C 10.058594 -40.109375 9.492188 -39.226562 9.179688 -38.410156 C 8.988281 -37.90625 8.925781 -37.34375 8.863281 -36.714844 L 8.863281 -9.492188 C 8.925781 -8.171875 9.304688 -7.292969 9.933594 -6.601562 C 10.246094 -6.285156 10.6875 -6.097656 11.253906 -6.097656 C 12.699219 -6.097656 13.265625 -6.851562 13.578125 -7.796875 C 13.765625 -8.234375 13.832031 -8.800781 13.832031 -9.492188 L 13.832031 -15.84375 Z M 20.179688 -15.84375 "/></g></g></g><g fill="#000000" fill-opacity="1"><g transform="translate(220.408644, 228.131044)"><g><path d="M 2.515625 -46.207031 L 9.304688 -46.207031 L 9.304688 -6.285156 L 18.292969 -6.285156 L 18.292969 0 L 2.515625 0 Z M 2.515625 -46.207031 "/></g></g></g><g fill="#000000" fill-opacity="1"><g transform="translate(238.952157, 228.131044)"><g><path d="M 20.558594 -46.207031 L 20.558594 -9.492188 C 20.492188 -7.605469 20.117188 -5.910156 19.425781 -4.464844 C 18.859375 -3.207031 17.980469 -2.011719 16.722656 -1.070312 C 15.464844 -0.0625 13.765625 0.503906 11.503906 0.503906 C 9.242188 0.503906 7.480469 -0.0625 6.222656 -1.070312 C 4.964844 -2.011719 4.148438 -3.207031 3.582031 -4.464844 C 2.890625 -5.910156 2.515625 -7.605469 2.453125 -9.492188 L 2.453125 -46.207031 L 9.242188 -46.207031 L 9.242188 -9.492188 C 9.242188 -8.171875 9.554688 -7.292969 10.183594 -6.601562 C 10.5 -6.285156 10.9375 -6.097656 11.503906 -6.097656 C 12.699219 -6.097656 13.265625 -6.851562 13.515625 -7.796875 C 13.703125 -8.234375 13.765625 -8.800781 13.765625 -9.492188 L 13.765625 -46.207031 Z M 20.558594 -46.207031 "/></g></g></g><g fill="#000000" fill-opacity="1"><g transform="translate(261.958682, 228.131044)"><g><path d="M 2.515625 0 L 2.515625 -46.207031 L 8.488281 -46.207031 C 12.511719 -46.207031 15.652344 -45.453125 17.726562 -43.503906 C 19.800781 -41.554688 20.871094 -38.535156 20.871094 -33.945312 C 20.871094 -31.746094 20.683594 -30.113281 19.992188 -28.605469 C 19.300781 -27.09375 18.230469 -25.835938 16.660156 -24.390625 C 18.355469 -23.449219 19.613281 -21.6875 20.621094 -18.734375 C 21.121094 -17.289062 21.375 -15.402344 21.375 -13.074219 C 21.375 -9.617188 20.746094 -6.539062 19.171875 -4.148438 C 17.601562 -1.761719 14.898438 -0.1875 10.875 0 Z M 9.304688 -27.15625 C 9.871094 -27.15625 11.191406 -27.09375 12.320312 -27.847656 C 13.453125 -28.605469 14.332031 -30.113281 14.332031 -33.320312 C 14.332031 -36.523438 13.453125 -38.035156 12.320312 -38.789062 C 11.191406 -39.542969 9.871094 -39.480469 9.304688 -39.480469 Z M 9.304688 -6.726562 C 9.871094 -6.726562 11.191406 -6.601562 12.320312 -7.417969 C 13.453125 -8.234375 14.332031 -10.058594 14.332031 -13.832031 C 14.332031 -17.601562 13.453125 -19.425781 12.320312 -20.242188 C 11.191406 -21.058594 9.871094 -20.933594 9.304688 -20.933594 Z M 9.304688 -6.726562 "/></g></g></g><g fill="#000000" fill-opacity="1"><g transform="translate(110.812497, 250.487693)"><g><path d="M 5.484375 0 L 3.203125 0 L 3.203125 -8.8125 L 0.296875 -8.8125 L 0.296875 -10.703125 L 8.390625 -10.703125 L 8.390625 -8.8125 L 5.484375 -8.8125 Z M 5.484375 0 "/></g></g><g transform="translate(119.49902, 250.487693)"><g><path d="M 10.0625 -10.703125 L 10.0625 -3.78125 C 10.0625 -2.988281 9.882812 -2.296875 9.53125 -1.703125 C 9.175781 -1.109375 8.664062 -0.648438 8 -0.328125 C 7.332031 -0.015625 6.539062 0.140625 5.625 0.140625 C 4.25 0.140625 3.179688 -0.207031 2.421875 -0.90625 C 1.660156 -1.613281 1.28125 -2.582031 1.28125 -3.8125 L 1.28125 -10.703125 L 3.53125 -10.703125 L 3.53125 -4.15625 C 3.53125 -3.332031 3.695312 -2.726562 4.03125 -2.34375 C 4.363281 -1.957031 4.914062 -1.765625 5.6875 -1.765625 C 6.425781 -1.765625 6.960938 -1.957031 7.296875 -2.34375 C 7.628906 -2.726562 7.796875 -3.335938 7.796875 -4.171875 L 7.796875 -10.703125 Z M 10.0625 -10.703125 "/></g></g><g transform="translate(130.83691, 250.487693)"><g/></g><g transform="translate(134.733394, 250.487693)"><g><path d="M 5.890625 -8.96875 C 5.035156 -8.96875 4.375 -8.644531 3.90625 -8 C 3.4375 -7.363281 3.203125 -6.472656 3.203125 -5.328125 C 3.203125 -2.941406 4.097656 -1.75 5.890625 -1.75 C 6.648438 -1.75 7.5625 -1.9375 8.625 -2.3125 L 8.625 -0.40625 C 7.75 -0.0390625 6.769531 0.140625 5.6875 0.140625 C 4.125 0.140625 2.929688 -0.328125 2.109375 -1.265625 C 1.285156 -2.210938 0.875 -3.570312 0.875 -5.34375 C 0.875 -6.457031 1.078125 -7.429688 1.484375 -8.265625 C 1.890625 -9.097656 2.46875 -9.738281 3.21875 -10.1875 C 3.976562 -10.632812 4.867188 -10.859375 5.890625 -10.859375 C 6.929688 -10.859375 7.976562 -10.609375 9.03125 -10.109375 L 8.296875 -8.265625 C 7.898438 -8.453125 7.5 -8.613281 7.09375 -8.75 C 6.6875 -8.894531 6.285156 -8.96875 5.890625 -8.96875 Z M 5.890625 -8.96875 "/></g></g><g transform="translate(144.291499, 250.487693)"><g><path d="M 1.34375 0 L 1.34375 -10.703125 L 3.625 -10.703125 L 3.625 -1.875 L 7.96875 -1.875 L 7.96875 0 Z M 1.34375 0 "/></g></g><g transform="translate(152.76562, 250.487693)"><g><path d="M 10.0625 -10.703125 L 10.0625 -3.78125 C 10.0625 -2.988281 9.882812 -2.296875 9.53125 -1.703125 C 9.175781 -1.109375 8.664062 -0.648438 8 -0.328125 C 7.332031 -0.015625 6.539062 0.140625 5.625 0.140625 C 4.25 0.140625 3.179688 -0.207031 2.421875 -0.90625 C 1.660156 -1.613281 1.28125 -2.582031 1.28125 -3.8125 L 1.28125 -10.703125 L 3.53125 -10.703125 L 3.53125 -4.15625 C 3.53125 -3.332031 3.695312 -2.726562 4.03125 -2.34375 C 4.363281 -1.957031 4.914062 -1.765625 5.6875 -1.765625 C 6.425781 -1.765625 6.960938 -1.957031 7.296875 -2.34375 C 7.628906 -2.726562 7.796875 -3.335938 7.796875 -4.171875 L 7.796875 -10.703125 Z M 10.0625 -10.703125 "/></g></g><g transform="translate(164.10351, 250.487693)"><g><path d="M 1.34375 -10.703125 L 4.6875 -10.703125 C 6.195312 -10.703125 7.296875 -10.484375 7.984375 -10.046875 C 8.671875 -9.617188 9.015625 -8.9375 9.015625 -8 C 9.015625 -7.351562 8.863281 -6.828125 8.5625 -6.421875 C 8.257812 -6.015625 7.863281 -5.769531 7.375 -5.6875 L 7.375 -5.609375 C 8.050781 -5.460938 8.535156 -5.179688 8.828125 -4.765625 C 9.128906 -4.347656 9.28125 -3.796875 9.28125 -3.109375 C 9.28125 -2.128906 8.925781 -1.363281 8.21875 -0.8125 C 7.519531 -0.269531 6.566406 0 5.359375 0 L 1.34375 0 Z M 3.625 -6.46875 L 4.9375 -6.46875 C 5.550781 -6.46875 5.992188 -6.5625 6.265625 -6.75 C 6.546875 -6.9375 6.6875 -7.253906 6.6875 -7.703125 C 6.6875 -8.109375 6.535156 -8.398438 6.234375 -8.578125 C 5.929688 -8.753906 5.457031 -8.84375 4.8125 -8.84375 L 3.625 -8.84375 Z M 3.625 -4.671875 L 3.625 -1.875 L 5.09375 -1.875 C 5.71875 -1.875 6.175781 -1.992188 6.46875 -2.234375 C 6.769531 -2.472656 6.921875 -2.835938 6.921875 -3.328125 C 6.921875 -4.222656 6.289062 -4.671875 5.03125 -4.671875 Z M 3.625 -4.671875 "/></g></g><g transform="translate(174.181634, 250.487693)"><g/></g><g transform="translate(178.078118, 250.487693)"><g><path d="M 10.234375 -5.453125 C 10.234375 -3.691406 9.726562 -2.34375 8.71875 -1.40625 C 7.71875 -0.46875 6.269531 0 4.375 0 L 1.34375 0 L 1.34375 -10.703125 L 4.703125 -10.703125 C 6.453125 -10.703125 7.8125 -10.238281 8.78125 -9.3125 C 9.75 -8.394531 10.234375 -7.109375 10.234375 -5.453125 Z M 7.875 -5.390625 C 7.875 -7.691406 6.859375 -8.84375 4.828125 -8.84375 L 3.625 -8.84375 L 3.625 -1.875 L 4.59375 -1.875 C 6.78125 -1.875 7.875 -3.046875 7.875 -5.390625 Z M 7.875 -5.390625 "/></g></g><g transform="translate(189.181633, 250.487693)"><g><path d="M 7.515625 0 L 1.34375 0 L 1.34375 -10.703125 L 7.515625 -10.703125 L 7.515625 -8.84375 L 3.625 -8.84375 L 3.625 -6.5 L 7.25 -6.5 L 7.25 -4.640625 L 3.625 -4.640625 L 3.625 -1.875 L 7.515625 -1.875 Z M 7.515625 0 "/></g></g><g transform="translate(197.582511, 250.487693)"><g><path d="M 3.625 -5.671875 L 4.359375 -5.671875 C 5.054688 -5.671875 5.578125 -5.804688 5.921875 -6.078125 C 6.273438 -6.359375 6.453125 -6.757812 6.453125 -7.28125 C 6.453125 -7.820312 6.304688 -8.21875 6.015625 -8.46875 C 5.722656 -8.71875 5.269531 -8.84375 4.65625 -8.84375 L 3.625 -8.84375 Z M 8.75 -7.375 C 8.75 -6.21875 8.382812 -5.332031 7.65625 -4.71875 C 6.9375 -4.113281 5.914062 -3.8125 4.59375 -3.8125 L 3.625 -3.8125 L 3.625 0 L 1.34375 0 L 1.34375 -10.703125 L 4.765625 -10.703125 C 6.066406 -10.703125 7.054688 -10.421875 7.734375 -9.859375 C 8.410156 -9.304688 8.75 -8.476562 8.75 -7.375 Z M 8.75 -7.375 "/></g></g><g transform="translate(207.001456, 250.487693)"><g><path d="M 11.0625 -5.375 C 11.0625 -3.59375 10.625 -2.226562 9.75 -1.28125 C 8.875 -0.332031 7.613281 0.140625 5.96875 0.140625 C 4.332031 0.140625 3.070312 -0.332031 2.1875 -1.28125 C 1.3125 -2.226562 0.875 -3.597656 0.875 -5.390625 C 0.875 -7.171875 1.3125 -8.53125 2.1875 -9.46875 C 3.070312 -10.40625 4.335938 -10.875 5.984375 -10.875 C 7.628906 -10.875 8.882812 -10.398438 9.75 -9.453125 C 10.625 -8.503906 11.0625 -7.144531 11.0625 -5.375 Z M 3.25 -5.375 C 3.25 -4.175781 3.472656 -3.273438 3.921875 -2.671875 C 4.378906 -2.066406 5.0625 -1.765625 5.96875 -1.765625 C 7.78125 -1.765625 8.6875 -2.96875 8.6875 -5.375 C 8.6875 -7.78125 7.785156 -8.984375 5.984375 -8.984375 C 5.078125 -8.984375 4.394531 -8.675781 3.9375 -8.0625 C 3.476562 -7.457031 3.25 -6.5625 3.25 -5.375 Z M 3.25 -5.375 "/></g></g><g transform="translate(218.939932, 250.487693)"><g><path d="M 3.625 -5.953125 L 4.34375 -5.953125 C 5.0625 -5.953125 5.59375 -6.070312 5.9375 -6.3125 C 6.28125 -6.550781 6.453125 -6.925781 6.453125 -7.4375 C 6.453125 -7.945312 6.273438 -8.304688 5.921875 -8.515625 C 5.578125 -8.734375 5.039062 -8.84375 4.3125 -8.84375 L 3.625 -8.84375 Z M 3.625 -4.109375 L 3.625 0 L 1.34375 0 L 1.34375 -10.703125 L 4.46875 -10.703125 C 5.925781 -10.703125 7.003906 -10.4375 7.703125 -9.90625 C 8.398438 -9.382812 8.75 -8.582031 8.75 -7.5 C 8.75 -6.875 8.570312 -6.3125 8.21875 -5.8125 C 7.875 -5.320312 7.382812 -4.941406 6.75 -4.671875 C 8.363281 -2.265625 9.414062 -0.707031 9.90625 0 L 7.390625 0 L 4.828125 -4.109375 Z M 3.625 -4.109375 "/></g></g><g transform="translate(228.842275, 250.487693)"><g><path d="M 5.484375 0 L 3.203125 0 L 3.203125 -8.8125 L 0.296875 -8.8125 L 0.296875 -10.703125 L 8.390625 -10.703125 L 8.390625 -8.8125 L 5.484375 -8.8125 Z M 5.484375 0 "/></g></g><g transform="translate(237.528798, 250.487693)"><g><path d="M 1.34375 0 L 1.34375 -10.703125 L 3.625 -10.703125 L 3.625 0 Z M 1.34375 0 "/></g></g><g transform="translate(242.494618, 250.487693)"><g><path d="M 7.453125 -10.703125 L 9.75 -10.703125 L 6.109375 0 L 3.640625 0 L 0 -10.703125 L 2.296875 -10.703125 L 4.3125 -4.34375 C 4.414062 -3.957031 4.523438 -3.515625 4.640625 -3.015625 C 4.765625 -2.515625 4.84375 -2.171875 4.875 -1.984375 C 4.925781 -2.429688 5.109375 -3.21875 5.421875 -4.34375 Z M 7.453125 -10.703125 "/></g></g><g transform="translate(252.243152, 250.487693)"><g><path d="M 11.0625 -5.375 C 11.0625 -3.59375 10.625 -2.226562 9.75 -1.28125 C 8.875 -0.332031 7.613281 0.140625 5.96875 0.140625 C 4.332031 0.140625 3.070312 -0.332031 2.1875 -1.28125 C 1.3125 -2.226562 0.875 -3.597656 0.875 -5.390625 C 0.875 -7.171875 1.3125 -8.53125 2.1875 -9.46875 C 3.070312 -10.40625 4.335938 -10.875 5.984375 -10.875 C 7.628906 -10.875 8.882812 -10.398438 9.75 -9.453125 C 10.625 -8.503906 11.0625 -7.144531 11.0625 -5.375 Z M 3.25 -5.375 C 3.25 -4.175781 3.472656 -3.273438 3.921875 -2.671875 C 4.378906 -2.066406 5.0625 -1.765625 5.96875 -1.765625 C 7.78125 -1.765625 8.6875 -2.96875 8.6875 -5.375 C 8.6875 -7.78125 7.785156 -8.984375 5.984375 -8.984375 C 5.078125 -8.984375 4.394531 -8.675781 3.9375 -8.0625 C 3.476562 -7.457031 3.25 -6.5625 3.25 -5.375 Z M 3.25 -5.375 "/></g></g></g></svg>