<svg xmlns="http://www.w3.org/2000/svg" xmlns:xlink="http://www.w3.org/1999/xlink" width="500" zoomAndPan="magnify" viewBox="0 0 375 217.499994" height="290" preserveAspectRatio="xMidYMid meet" version="1.0"><defs><g/><clipPath id="27049fd313"><path d="M 72.601562 37.890625 L 302.324219 37.890625 L 302.324219 99.996094 L 72.601562 99.996094 Z M 72.601562 37.890625 " clip-rule="nonzero"/></clipPath></defs><g clip-path="url(#27049fd313)"><path fill="#ffffff" d="M 207.214844 99.992188 C 206.6875 94.257812 205.175781 88.792969 202.671875 83.605469 C 202.5625 83.375 202.496094 83.136719 202.464844 82.882812 C 202.4375 82.632812 202.449219 82.382812 202.5 82.132812 C 202.554688 81.886719 202.648438 81.652344 202.777344 81.4375 C 202.90625 81.21875 203.070312 81.027344 203.261719 80.863281 C 203.457031 80.699219 203.671875 80.570312 203.910156 80.476562 C 204.144531 80.382812 204.390625 80.332031 204.644531 80.320312 C 204.898438 80.308594 205.144531 80.335938 205.390625 80.40625 C 205.632812 80.476562 205.859375 80.582031 206.070312 80.726562 C 212.089844 84.890625 219.722656 89.503906 227.429688 92.375 C 233.503906 94.640625 237.472656 96.628906 240.066406 98.25 C 240.722656 98.648438 241.101562 99.230469 241.203125 99.992188 L 302.324219 99.992188 L 302.128906 92.769531 C 302.125 92.578125 302.082031 92.390625 302.007812 92.210938 C 301.929688 92.03125 301.824219 91.875 301.683594 91.738281 C 301.546875 91.597656 301.386719 91.492188 301.210938 91.414062 C 301.03125 91.339844 300.84375 91.296875 300.648438 91.292969 L 292.828125 91.179688 C 292.605469 91.175781 292.394531 91.21875 292.195312 91.308594 L 287.695312 93.277344 C 287.484375 93.371094 287.265625 93.414062 287.035156 93.40625 L 256.769531 92.421875 C 256.6875 92.429688 256.605469 92.429688 256.523438 92.421875 C 191.730469 79.9375 203.328125 31.625 119.402344 38.574219 C 86.671875 41.285156 72.601562 69.128906 72.601562 99.578125 C 72.601562 99.714844 72.601562 99.851562 72.601562 99.992188 Z M 178.269531 78.109375 C 178.785156 78.109375 179.28125 78.207031 179.753906 78.40625 C 180.230469 78.601562 180.648438 78.882812 181.015625 79.246094 C 181.378906 79.605469 181.660156 80.027344 181.855469 80.5 C 182.050781 80.976562 182.152344 81.46875 182.152344 81.984375 C 182.152344 82.496094 182.050781 82.992188 181.855469 83.464844 C 181.660156 83.941406 181.378906 84.359375 181.015625 84.722656 C 180.648438 85.085938 180.230469 85.367188 179.753906 85.5625 C 179.28125 85.757812 178.785156 85.855469 178.269531 85.855469 C 177.753906 85.855469 177.261719 85.757812 176.785156 85.5625 C 176.308594 85.367188 175.890625 85.085938 175.527344 84.722656 C 175.160156 84.359375 174.882812 83.941406 174.683594 83.464844 C 174.488281 82.992188 174.386719 82.496094 174.386719 81.984375 C 174.386719 81.46875 174.488281 80.976562 174.683594 80.5 C 174.882812 80.027344 175.160156 79.605469 175.527344 79.246094 C 175.890625 78.882812 176.308594 78.601562 176.785156 78.40625 C 177.261719 78.207031 177.753906 78.109375 178.269531 78.109375 Z M 178.269531 90.996094 C 178.785156 90.996094 179.28125 91.09375 179.753906 91.292969 C 180.230469 91.488281 180.648438 91.769531 181.015625 92.132812 C 181.378906 92.496094 181.660156 92.914062 181.855469 93.386719 C 182.050781 93.863281 182.152344 94.355469 182.152344 94.871094 C 182.152344 95.382812 182.050781 95.878906 181.855469 96.351562 C 181.660156 96.828125 181.378906 97.246094 181.015625 97.609375 C 180.648438 97.972656 180.230469 98.253906 179.753906 98.449219 C 179.28125 98.644531 178.785156 98.742188 178.269531 98.742188 C 177.753906 98.742188 177.261719 98.644531 176.785156 98.449219 C 176.308594 98.253906 175.890625 97.972656 175.527344 97.609375 C 175.160156 97.246094 174.882812 96.828125 174.683594 96.351562 C 174.488281 95.878906 174.386719 95.382812 174.386719 94.871094 C 174.386719 94.355469 174.488281 93.863281 174.683594 93.386719 C 174.882812 92.914062 175.160156 92.496094 175.527344 92.132812 C 175.890625 91.769531 176.308594 91.488281 176.785156 91.292969 C 177.261719 91.09375 177.753906 90.996094 178.269531 90.996094 Z M 163.605469 65.261719 C 164.121094 65.261719 164.613281 65.359375 165.089844 65.558594 C 165.566406 65.753906 165.984375 66.035156 166.347656 66.398438 C 166.714844 66.761719 166.992188 67.179688 167.191406 67.652344 C 167.386719 68.128906 167.484375 68.625 167.484375 69.136719 C 167.484375 69.652344 167.386719 70.144531 167.1875 70.621094 C 166.992188 71.09375 166.710938 71.511719 166.347656 71.875 C 165.984375 72.238281 165.5625 72.519531 165.085938 72.714844 C 164.609375 72.910156 164.117188 73.007812 163.601562 73.007812 C 163.085938 73.007812 162.589844 72.910156 162.117188 72.710938 C 161.640625 72.515625 161.222656 72.234375 160.855469 71.871094 C 160.492188 71.507812 160.214844 71.089844 160.015625 70.613281 C 159.820312 70.136719 159.722656 69.644531 159.722656 69.128906 C 159.722656 68.617188 159.824219 68.125 160.019531 67.648438 C 160.21875 67.175781 160.496094 66.757812 160.863281 66.394531 C 161.226562 66.03125 161.644531 65.753906 162.121094 65.554688 C 162.59375 65.359375 163.089844 65.261719 163.605469 65.261719 Z M 163.605469 78.109375 C 164.117188 78.109375 164.613281 78.207031 165.089844 78.40625 C 165.566406 78.601562 165.984375 78.882812 166.347656 79.246094 C 166.710938 79.605469 166.992188 80.027344 167.191406 80.5 C 167.386719 80.976562 167.484375 81.46875 167.484375 81.984375 C 167.484375 82.496094 167.386719 82.992188 167.191406 83.464844 C 166.992188 83.941406 166.710938 84.359375 166.347656 84.722656 C 165.984375 85.085938 165.566406 85.367188 165.089844 85.5625 C 164.613281 85.757812 164.117188 85.855469 163.605469 85.855469 C 163.089844 85.855469 162.59375 85.757812 162.121094 85.5625 C 161.644531 85.367188 161.222656 85.085938 160.859375 84.722656 C 160.496094 84.359375 160.214844 83.941406 160.019531 83.464844 C 159.820312 82.992188 159.722656 82.496094 159.722656 81.984375 C 159.722656 81.46875 159.820312 80.976562 160.019531 80.5 C 160.214844 80.027344 160.496094 79.605469 160.859375 79.246094 C 161.222656 78.882812 161.644531 78.601562 162.121094 78.40625 C 162.59375 78.207031 163.089844 78.109375 163.605469 78.109375 Z M 163.605469 90.996094 C 164.117188 90.996094 164.613281 91.09375 165.089844 91.292969 C 165.566406 91.488281 165.984375 91.769531 166.347656 92.132812 C 166.710938 92.496094 166.992188 92.914062 167.191406 93.386719 C 167.386719 93.863281 167.484375 94.355469 167.484375 94.871094 C 167.484375 95.382812 167.386719 95.878906 167.191406 96.351562 C 166.992188 96.828125 166.710938 97.246094 166.347656 97.609375 C 165.984375 97.972656 165.566406 98.253906 165.089844 98.449219 C 164.613281 98.644531 164.117188 98.742188 163.605469 98.742188 C 163.089844 98.742188 162.59375 98.644531 162.121094 98.449219 C 161.644531 98.253906 161.222656 97.972656 160.859375 97.609375 C 160.496094 97.246094 160.214844 96.828125 160.019531 96.351562 C 159.820312 95.878906 159.722656 95.382812 159.722656 94.871094 C 159.722656 94.355469 159.820312 93.863281 160.019531 93.386719 C 160.214844 92.914062 160.496094 92.496094 160.859375 92.132812 C 161.222656 91.769531 161.644531 91.488281 162.121094 91.292969 C 162.59375 91.09375 163.089844 90.996094 163.605469 90.996094 Z M 148.953125 52.558594 C 149.46875 52.554688 149.964844 52.652344 150.441406 52.851562 C 150.917969 53.046875 151.335938 53.324219 151.699219 53.6875 C 152.066406 54.050781 152.347656 54.472656 152.542969 54.945312 C 152.742188 55.421875 152.839844 55.914062 152.839844 56.429688 C 152.839844 56.941406 152.742188 57.4375 152.546875 57.910156 C 152.347656 58.386719 152.066406 58.804688 151.703125 59.167969 C 151.339844 59.53125 150.917969 59.8125 150.445312 60.007812 C 149.96875 60.207031 149.472656 60.304688 148.957031 60.304688 C 148.441406 60.304688 147.945312 60.207031 147.472656 60.007812 C 146.996094 59.8125 146.574219 59.53125 146.210938 59.167969 C 145.847656 58.804688 145.566406 58.382812 145.371094 57.910156 C 145.175781 57.433594 145.078125 56.941406 145.078125 56.425781 C 145.078125 55.914062 145.175781 55.417969 145.371094 54.945312 C 145.570312 54.472656 145.851562 54.054688 146.214844 53.691406 C 146.578125 53.328125 146.996094 53.050781 147.472656 52.855469 C 147.945312 52.660156 148.441406 52.5625 148.953125 52.5625 Z M 148.953125 65.257812 C 149.46875 65.257812 149.964844 65.355469 150.441406 65.550781 C 150.917969 65.746094 151.335938 66.027344 151.699219 66.390625 C 152.066406 66.753906 152.347656 67.171875 152.542969 67.644531 C 152.742188 68.121094 152.839844 68.613281 152.839844 69.128906 C 152.839844 69.644531 152.742188 70.136719 152.546875 70.613281 C 152.347656 71.085938 152.066406 71.507812 151.703125 71.871094 C 151.339844 72.234375 150.917969 72.511719 150.445312 72.710938 C 149.96875 72.90625 149.472656 73.003906 148.957031 73.003906 C 148.441406 73.003906 147.945312 72.90625 147.472656 72.707031 C 146.996094 72.511719 146.574219 72.230469 146.210938 71.867188 C 145.847656 71.503906 145.566406 71.085938 145.371094 70.609375 C 145.175781 70.132812 145.078125 69.640625 145.078125 69.125 C 145.078125 68.613281 145.175781 68.121094 145.375 67.648438 C 145.570312 67.171875 145.851562 66.753906 146.214844 66.394531 C 146.578125 66.03125 146.996094 65.75 147.472656 65.554688 C 147.945312 65.359375 148.441406 65.261719 148.953125 65.261719 Z M 148.953125 78.105469 C 149.46875 78.105469 149.964844 78.203125 150.441406 78.398438 C 150.914062 78.59375 151.335938 78.875 151.699219 79.234375 C 152.066406 79.597656 152.347656 80.019531 152.542969 80.492188 C 152.742188 80.96875 152.839844 81.460938 152.839844 81.976562 C 152.839844 82.488281 152.742188 82.984375 152.546875 83.457031 C 152.347656 83.933594 152.070312 84.351562 151.703125 84.714844 C 151.339844 85.078125 150.921875 85.359375 150.445312 85.554688 C 149.96875 85.753906 149.476562 85.851562 148.960938 85.851562 C 148.445312 85.851562 147.949219 85.753906 147.476562 85.558594 C 147 85.359375 146.578125 85.082031 146.214844 84.71875 C 145.851562 84.355469 145.570312 83.9375 145.375 83.460938 C 145.175781 82.984375 145.078125 82.492188 145.078125 81.976562 C 145.078125 81.464844 145.175781 80.972656 145.371094 80.496094 C 145.570312 80.023438 145.851562 79.605469 146.214844 79.242188 C 146.578125 78.878906 146.996094 78.601562 147.46875 78.402344 C 147.945312 78.207031 148.441406 78.109375 148.953125 78.109375 Z M 148.953125 90.992188 C 149.46875 90.992188 149.964844 91.089844 150.441406 91.285156 C 150.914062 91.480469 151.335938 91.761719 151.699219 92.125 C 152.066406 92.488281 152.347656 92.90625 152.542969 93.378906 C 152.742188 93.855469 152.839844 94.347656 152.839844 94.863281 C 152.839844 95.375 152.742188 95.871094 152.546875 96.34375 C 152.347656 96.820312 152.070312 97.238281 151.703125 97.601562 C 151.339844 97.964844 150.921875 98.246094 150.445312 98.445312 C 149.96875 98.640625 149.476562 98.738281 148.960938 98.738281 C 148.445312 98.738281 147.949219 98.640625 147.476562 98.445312 C 147 98.25 146.578125 97.96875 146.214844 97.605469 C 145.851562 97.242188 145.570312 96.824219 145.375 96.347656 C 145.175781 95.875 145.078125 95.378906 145.078125 94.867188 C 145.078125 94.351562 145.175781 93.859375 145.371094 93.386719 C 145.570312 92.910156 145.851562 92.492188 146.214844 92.128906 C 146.578125 91.765625 146.996094 91.488281 147.46875 91.292969 C 147.945312 91.09375 148.441406 90.996094 148.953125 90.996094 Z M 134.324219 52.5625 C 134.839844 52.5625 135.332031 52.660156 135.808594 52.855469 C 136.285156 53.050781 136.707031 53.332031 137.070312 53.695312 C 137.433594 54.058594 137.714844 54.476562 137.914062 54.949219 C 138.109375 55.425781 138.210938 55.917969 138.210938 56.433594 C 138.210938 56.949219 138.109375 57.441406 137.914062 57.917969 C 137.71875 58.390625 137.4375 58.8125 137.074219 59.175781 C 136.707031 59.539062 136.289062 59.816406 135.8125 60.015625 C 135.335938 60.210938 134.839844 60.308594 134.328125 60.308594 C 133.8125 60.308594 133.316406 60.210938 132.839844 60.011719 C 132.363281 59.816406 131.945312 59.535156 131.582031 59.171875 C 131.21875 58.808594 130.9375 58.390625 130.742188 57.914062 C 130.542969 57.4375 130.445312 56.945312 130.445312 56.429688 C 130.445312 55.917969 130.546875 55.425781 130.742188 54.949219 C 130.9375 54.476562 131.21875 54.058594 131.582031 53.695312 C 131.945312 53.332031 132.363281 53.050781 132.839844 52.855469 C 133.316406 52.660156 133.808594 52.5625 134.324219 52.5625 Z M 134.324219 65.261719 C 134.839844 65.261719 135.332031 65.359375 135.808594 65.554688 C 136.285156 65.75 136.707031 66.03125 137.070312 66.394531 C 137.433594 66.757812 137.714844 67.175781 137.914062 67.652344 C 138.109375 68.125 138.210938 68.621094 138.210938 69.132812 C 138.210938 69.648438 138.109375 70.140625 137.914062 70.617188 C 137.71875 71.09375 137.4375 71.511719 137.074219 71.875 C 136.707031 72.238281 136.289062 72.519531 135.8125 72.714844 C 135.335938 72.910156 134.839844 73.007812 134.328125 73.007812 C 133.8125 73.007812 133.316406 72.910156 132.839844 72.714844 C 132.363281 72.515625 131.945312 72.234375 131.582031 71.871094 C 131.21875 71.507812 130.9375 71.089844 130.742188 70.613281 C 130.542969 70.140625 130.445312 69.644531 130.445312 69.128906 C 130.449219 68.617188 130.546875 68.125 130.742188 67.652344 C 130.941406 67.175781 131.21875 66.757812 131.582031 66.394531 C 131.945312 66.035156 132.367188 65.753906 132.839844 65.558594 C 133.316406 65.359375 133.808594 65.261719 134.324219 65.261719 Z M 134.324219 78.109375 C 134.839844 78.109375 135.332031 78.207031 135.808594 78.402344 C 136.285156 78.597656 136.707031 78.878906 137.070312 79.242188 C 137.433594 79.605469 137.714844 80.023438 137.914062 80.496094 C 138.109375 80.972656 138.207031 81.464844 138.210938 81.980469 C 138.210938 82.492188 138.113281 82.988281 137.914062 83.460938 C 137.71875 83.9375 137.4375 84.355469 137.074219 84.71875 C 136.710938 85.085938 136.289062 85.363281 135.816406 85.5625 C 135.339844 85.757812 134.84375 85.855469 134.328125 85.855469 C 133.816406 85.855469 133.320312 85.757812 132.84375 85.5625 C 132.367188 85.367188 131.949219 85.085938 131.585938 84.722656 C 131.21875 84.359375 130.941406 83.941406 130.742188 83.464844 C 130.546875 82.992188 130.445312 82.496094 130.445312 81.984375 C 130.445312 81.46875 130.546875 80.976562 130.742188 80.503906 C 130.9375 80.027344 131.21875 79.609375 131.582031 79.246094 C 131.945312 78.882812 132.363281 78.601562 132.839844 78.40625 C 133.3125 78.210938 133.808594 78.109375 134.324219 78.109375 Z M 134.324219 90.996094 C 134.839844 90.996094 135.332031 91.09375 135.808594 91.289062 C 136.285156 91.484375 136.707031 91.765625 137.070312 92.128906 C 137.433594 92.492188 137.714844 92.910156 137.914062 93.382812 C 138.109375 93.859375 138.207031 94.351562 138.210938 94.867188 C 138.210938 95.382812 138.113281 95.875 137.914062 96.351562 C 137.71875 96.824219 137.4375 97.242188 137.074219 97.609375 C 136.710938 97.972656 136.289062 98.25 135.816406 98.449219 C 135.339844 98.644531 134.84375 98.742188 134.328125 98.742188 C 133.816406 98.746094 133.320312 98.644531 132.84375 98.449219 C 132.367188 98.253906 131.949219 97.972656 131.585938 97.609375 C 131.21875 97.246094 130.941406 96.828125 130.742188 96.351562 C 130.546875 95.878906 130.445312 95.382812 130.445312 94.871094 C 130.445312 94.355469 130.546875 93.863281 130.742188 93.390625 C 130.9375 92.914062 131.21875 92.496094 131.582031 92.132812 C 131.945312 91.769531 132.363281 91.488281 132.839844 91.292969 C 133.3125 91.097656 133.808594 90.996094 134.324219 90.996094 Z M 119.652344 65.261719 C 120.167969 65.261719 120.664062 65.359375 121.140625 65.554688 C 121.617188 65.75 122.035156 66.03125 122.398438 66.394531 C 122.765625 66.757812 123.046875 67.175781 123.242188 67.652344 C 123.441406 68.125 123.539062 68.621094 123.539062 69.132812 C 123.539062 69.648438 123.441406 70.140625 123.242188 70.617188 C 123.046875 71.09375 122.765625 71.511719 122.402344 71.875 C 122.039062 72.238281 121.617188 72.519531 121.140625 72.714844 C 120.667969 72.910156 120.171875 73.007812 119.65625 73.007812 C 119.140625 73.007812 118.644531 72.910156 118.171875 72.714844 C 117.695312 72.515625 117.273438 72.234375 116.910156 71.871094 C 116.546875 71.507812 116.265625 71.089844 116.070312 70.613281 C 115.875 70.140625 115.777344 69.644531 115.777344 69.128906 C 115.777344 68.617188 115.875 68.125 116.074219 67.652344 C 116.269531 67.175781 116.550781 66.757812 116.914062 66.394531 C 117.277344 66.035156 117.695312 65.753906 118.171875 65.558594 C 118.644531 65.359375 119.140625 65.261719 119.652344 65.261719 Z M 119.652344 78.109375 C 120.167969 78.109375 120.664062 78.207031 121.140625 78.402344 C 121.613281 78.597656 122.035156 78.878906 122.398438 79.242188 C 122.765625 79.605469 123.042969 80.023438 123.242188 80.496094 C 123.441406 80.972656 123.539062 81.464844 123.539062 81.980469 C 123.539062 82.492188 123.441406 82.988281 123.246094 83.460938 C 123.046875 83.9375 122.769531 84.355469 122.402344 84.71875 C 122.039062 85.085938 121.621094 85.363281 121.144531 85.5625 C 120.667969 85.757812 120.175781 85.855469 119.660156 85.855469 C 119.144531 85.855469 118.648438 85.757812 118.175781 85.5625 C 117.699219 85.367188 117.277344 85.085938 116.914062 84.722656 C 116.550781 84.359375 116.269531 83.941406 116.074219 83.464844 C 115.875 82.992188 115.777344 82.496094 115.777344 81.984375 C 115.777344 81.46875 115.875 80.976562 116.070312 80.503906 C 116.269531 80.027344 116.546875 79.609375 116.910156 79.246094 C 117.273438 78.882812 117.695312 78.601562 118.167969 78.40625 C 118.644531 78.210938 119.140625 78.109375 119.652344 78.109375 Z M 119.652344 90.996094 C 120.167969 90.996094 120.664062 91.09375 121.140625 91.289062 C 121.613281 91.484375 122.035156 91.765625 122.398438 92.128906 C 122.765625 92.492188 123.042969 92.910156 123.242188 93.382812 C 123.441406 93.859375 123.539062 94.351562 123.539062 94.867188 C 123.539062 95.382812 123.441406 95.875 123.246094 96.351562 C 123.046875 96.824219 122.769531 97.242188 122.402344 97.609375 C 122.039062 97.972656 121.621094 98.25 121.144531 98.449219 C 120.667969 98.644531 120.175781 98.742188 119.660156 98.742188 C 119.144531 98.746094 118.648438 98.644531 118.175781 98.449219 C 117.699219 98.253906 117.277344 97.972656 116.914062 97.609375 C 116.550781 97.246094 116.269531 96.828125 116.074219 96.351562 C 115.875 95.878906 115.777344 95.382812 115.777344 94.871094 C 115.777344 94.355469 115.875 93.863281 116.070312 93.390625 C 116.269531 92.914062 116.546875 92.496094 116.910156 92.132812 C 117.273438 91.769531 117.695312 91.488281 118.167969 91.292969 C 118.644531 91.097656 119.140625 90.996094 119.652344 90.996094 Z M 105.003906 78.109375 C 105.515625 78.109375 106.011719 78.207031 106.488281 78.402344 C 106.964844 78.597656 107.382812 78.878906 107.75 79.242188 C 108.113281 79.605469 108.394531 80.023438 108.589844 80.496094 C 108.789062 80.972656 108.886719 81.464844 108.886719 81.980469 C 108.890625 82.492188 108.789062 82.988281 108.59375 83.460938 C 108.398438 83.9375 108.117188 84.355469 107.753906 84.71875 C 107.390625 85.085938 106.96875 85.363281 106.496094 85.5625 C 106.019531 85.757812 105.523438 85.855469 105.007812 85.855469 C 104.496094 85.855469 104 85.757812 103.523438 85.5625 C 103.046875 85.367188 102.628906 85.085938 102.261719 84.722656 C 101.898438 84.359375 101.617188 83.941406 101.421875 83.464844 C 101.226562 82.992188 101.125 82.496094 101.125 81.984375 C 101.125 81.46875 101.226562 80.976562 101.421875 80.503906 C 101.617188 80.027344 101.898438 79.609375 102.261719 79.246094 C 102.625 78.882812 103.042969 78.601562 103.519531 78.40625 C 103.992188 78.210938 104.488281 78.109375 105.003906 78.109375 Z M 105.003906 90.996094 C 105.515625 90.996094 106.011719 91.09375 106.488281 91.289062 C 106.964844 91.484375 107.382812 91.765625 107.75 92.128906 C 108.113281 92.492188 108.394531 92.910156 108.589844 93.382812 C 108.789062 93.859375 108.886719 94.351562 108.886719 94.867188 C 108.890625 95.382812 108.789062 95.875 108.59375 96.351562 C 108.398438 96.824219 108.117188 97.242188 107.753906 97.609375 C 107.390625 97.972656 106.96875 98.25 106.496094 98.449219 C 106.019531 98.644531 105.523438 98.742188 105.007812 98.742188 C 104.496094 98.746094 104 98.644531 103.523438 98.449219 C 103.046875 98.253906 102.628906 97.972656 102.261719 97.609375 C 101.898438 97.246094 101.617188 96.828125 101.421875 96.351562 C 101.226562 95.878906 101.125 95.382812 101.125 94.871094 C 101.125 94.355469 101.226562 93.863281 101.421875 93.390625 C 101.617188 92.914062 101.898438 92.496094 102.261719 92.132812 C 102.625 91.769531 103.042969 91.488281 103.519531 91.292969 C 103.992188 91.097656 104.488281 90.996094 105.003906 90.996094 Z M 105.003906 90.996094 " fill-opacity="1" fill-rule="nonzero"/></g><g fill="#ffffff" fill-opacity="1"><g transform="translate(90.387309, 153.52811)"><g><path d="M 13.734375 -33.742188 C 13.734375 -35.25 13.671875 -36.941406 13.234375 -38.257812 C 12.796875 -39.515625 12.105469 -40.390625 11.039062 -40.390625 C 9.28125 -40.328125 8.71875 -38.511719 8.71875 -35.8125 C 8.71875 -34.246094 9.40625 -32.613281 10.410156 -30.859375 C 11.414062 -29.101562 12.730469 -27.285156 14.050781 -25.339844 C 15.617188 -23.019531 17.183594 -20.636719 18.378906 -18.316406 C 19.570312 -15.992188 20.382812 -13.609375 20.382812 -11.101562 C 20.382812 -8.027344 19.882812 -5.144531 18.441406 -3.011719 C 16.996094 -0.878906 14.675781 0.5 10.976562 0.5 C 6.648438 0.5 4.203125 -1.128906 2.824219 -3.636719 C 1.441406 -6.148438 1.128906 -9.472656 1.128906 -12.921875 L 7.777344 -13.546875 C 7.777344 -11.601562 7.839844 -9.660156 8.34375 -8.214844 C 8.78125 -6.710938 9.535156 -5.707031 10.976562 -5.707031 C 12.984375 -5.707031 13.734375 -7.839844 13.734375 -10.789062 C 13.734375 -12.292969 12.984375 -14.050781 11.980469 -15.867188 C 11.414062 -16.746094 10.851562 -17.6875 10.222656 -18.628906 C 8.90625 -20.507812 7.464844 -22.640625 5.957031 -24.960938 C 4.453125 -27.285156 3.324219 -29.667969 2.632812 -32.113281 C 2.257812 -33.304688 2.070312 -34.558594 2.070312 -35.8125 C 2.070312 -38.324219 2.632812 -41.019531 4.078125 -43.089844 C 5.519531 -45.097656 7.714844 -46.539062 10.914062 -46.601562 C 14.992188 -46.664062 17.375 -44.972656 18.691406 -42.523438 C 20.007812 -40.015625 20.382812 -36.941406 20.382812 -34.371094 Z M 13.734375 -33.742188 "/></g></g></g><g fill="#ffffff" fill-opacity="1"><g transform="translate(111.898617, 153.52811)"><g><path d="M 2.507812 -46.101562 L 9.28125 -46.101562 C 12.230469 -46.101562 15.179688 -45.347656 17.4375 -43.214844 C 19.695312 -41.082031 21.199219 -37.570312 21.199219 -32.300781 C 21.199219 -27.03125 19.695312 -23.582031 17.4375 -21.449219 C 15.179688 -19.316406 12.230469 -18.441406 9.28125 -18.441406 L 9.28125 0 L 2.507812 0 Z M 9.28125 -25.339844 C 11.351562 -25.339844 12.667969 -25.714844 13.421875 -26.78125 C 14.175781 -27.785156 14.363281 -29.480469 14.363281 -32.050781 C 14.363281 -34.621094 14.175781 -36.441406 13.421875 -37.570312 C 12.667969 -38.699219 11.351562 -39.199219 9.28125 -39.199219 Z M 9.28125 -25.339844 "/></g></g></g><g fill="#ffffff" fill-opacity="1"><g transform="translate(133.974366, 153.52811)"><g><path d="M 20.132812 -9.472656 C 20.070312 -7.589844 19.695312 -5.894531 19.003906 -4.453125 C 18.441406 -3.199219 17.5625 -2.007812 16.308594 -1.066406 C 15.054688 -0.0625 13.359375 0.5 11.101562 0.5 C 8.84375 0.5 7.085938 -0.0625 5.832031 -1.066406 C 4.578125 -2.007812 3.761719 -3.199219 3.199219 -4.453125 C 2.507812 -5.894531 2.132812 -7.589844 2.070312 -9.472656 L 2.070312 -36.628906 C 2.132812 -38.449219 2.507812 -40.140625 3.199219 -41.582031 C 3.761719 -42.839844 4.578125 -44.09375 5.832031 -45.035156 C 7.085938 -45.972656 8.84375 -46.601562 11.101562 -46.601562 C 13.359375 -46.601562 15.054688 -45.972656 16.308594 -45.035156 C 17.5625 -44.09375 18.441406 -42.839844 19.003906 -41.582031 C 19.695312 -40.140625 20.070312 -38.449219 20.132812 -36.628906 Z M 13.359375 -36.628906 C 13.359375 -37.882812 13.109375 -38.761719 12.480469 -39.515625 C 12.167969 -39.828125 11.667969 -40.015625 11.101562 -40.015625 C 9.910156 -40.015625 9.34375 -39.136719 9.09375 -38.324219 C 8.90625 -37.820312 8.84375 -37.257812 8.84375 -36.628906 L 8.84375 -9.472656 C 8.84375 -8.152344 9.15625 -7.277344 9.785156 -6.585938 C 10.097656 -6.273438 10.535156 -6.082031 11.101562 -6.082031 C 12.292969 -6.082031 12.859375 -6.835938 13.109375 -7.777344 C 13.296875 -8.214844 13.359375 -8.78125 13.359375 -9.472656 Z M 13.359375 -36.628906 "/></g></g></g><g fill="#ffffff" fill-opacity="1"><g transform="translate(156.17554, 153.52811)"><g><path d="M 14.613281 0 L 11.101562 -19.445312 L 9.28125 -19.445312 L 9.28125 0 L 2.507812 0 L 2.507812 -46.101562 L 9.28125 -46.101562 C 17.375 -46.101562 20.824219 -41.519531 20.824219 -32.804688 C 20.824219 -28.222656 19.632812 -24.085938 17.058594 -22.328125 L 21.386719 0 Z M 9.28125 -25.714844 C 10.222656 -25.714844 11.476562 -25.839844 12.480469 -26.71875 C 13.484375 -27.597656 14.300781 -29.289062 14.300781 -32.550781 C 14.300781 -35.8125 13.484375 -37.570312 12.480469 -38.449219 C 11.476562 -39.324219 10.222656 -39.386719 9.28125 -39.386719 Z M 9.28125 -25.714844 "/></g></g></g><g fill="#ffffff" fill-opacity="1"><g transform="translate(178.815718, 153.52811)"><g><path d="M 0.125 -39.136719 L 0.125 -46.101562 L 19.695312 -46.101562 L 19.695312 -39.136719 L 13.296875 -39.136719 L 13.296875 0 L 6.523438 0 L 6.523438 -39.136719 Z M 0.125 -39.136719 "/></g></g></g><g fill="#ffffff" fill-opacity="1"><g transform="translate(198.633714, 153.52811)"><g><path d="M 20.132812 -15.804688 L 20.132812 -9.472656 C 20.070312 -7.589844 19.695312 -5.894531 19.003906 -4.453125 C 18.441406 -3.199219 17.5625 -2.007812 16.308594 -1.066406 C 15.054688 -0.0625 13.359375 0.5 11.101562 0.5 C 8.84375 0.5 7.085938 -0.0625 5.832031 -1.066406 C 4.578125 -2.007812 3.761719 -3.199219 3.199219 -4.453125 C 2.507812 -5.894531 2.132812 -7.589844 2.070312 -9.472656 L 2.070312 -36.628906 C 2.132812 -38.449219 2.507812 -40.140625 3.199219 -41.582031 C 3.761719 -42.839844 4.578125 -44.09375 5.832031 -45.035156 C 7.085938 -45.972656 8.84375 -46.601562 11.101562 -46.601562 C 13.359375 -46.601562 15.054688 -45.972656 16.308594 -45.035156 C 17.5625 -44.09375 18.441406 -42.839844 19.003906 -41.582031 C 19.695312 -40.140625 20.070312 -38.449219 20.132812 -36.628906 L 20.132812 -30.292969 L 13.796875 -30.292969 L 13.796875 -36.628906 C 13.796875 -37.882812 13.484375 -38.761719 12.796875 -39.515625 C 12.480469 -39.828125 11.917969 -40.015625 11.226562 -40.015625 C 10.035156 -40.015625 9.472656 -39.136719 9.15625 -38.324219 C 8.96875 -37.820312 8.90625 -37.257812 8.84375 -36.628906 L 8.84375 -9.472656 C 8.90625 -8.152344 9.28125 -7.277344 9.910156 -6.585938 C 10.222656 -6.273438 10.664062 -6.082031 11.226562 -6.082031 C 12.667969 -6.082031 13.234375 -6.835938 13.546875 -7.777344 C 13.734375 -8.214844 13.796875 -8.78125 13.796875 -9.472656 L 13.796875 -15.804688 Z M 20.132812 -15.804688 "/></g></g></g><g fill="#ffffff" fill-opacity="1"><g transform="translate(220.333165, 153.52811)"><g><path d="M 2.507812 -46.101562 L 9.28125 -46.101562 L 9.28125 -6.273438 L 18.25 -6.273438 L 18.25 0 L 2.507812 0 Z M 2.507812 -46.101562 "/></g></g></g><g fill="#ffffff" fill-opacity="1"><g transform="translate(238.834147, 153.52811)"><g><path d="M 20.507812 -46.101562 L 20.507812 -9.472656 C 20.445312 -7.589844 20.070312 -5.894531 19.378906 -4.453125 C 18.816406 -3.199219 17.9375 -2.007812 16.683594 -1.066406 C 15.429688 -0.0625 13.734375 0.5 11.476562 0.5 C 9.21875 0.5 7.464844 -0.0625 6.210938 -1.066406 C 4.953125 -2.007812 4.140625 -3.199219 3.574219 -4.453125 C 2.886719 -5.894531 2.507812 -7.589844 2.445312 -9.472656 L 2.445312 -46.101562 L 9.21875 -46.101562 L 9.21875 -9.472656 C 9.21875 -8.152344 9.535156 -7.277344 10.160156 -6.585938 C 10.472656 -6.273438 10.914062 -6.082031 11.476562 -6.082031 C 12.667969 -6.082031 13.234375 -6.835938 13.484375 -7.777344 C 13.671875 -8.214844 13.734375 -8.78125 13.734375 -9.472656 L 13.734375 -46.101562 Z M 20.507812 -46.101562 "/></g></g></g><g fill="#ffffff" fill-opacity="1"><g transform="translate(261.787905, 153.52811)"><g><path d="M 2.507812 0 L 2.507812 -46.101562 L 8.46875 -46.101562 C 12.480469 -46.101562 15.617188 -45.347656 17.6875 -43.402344 C 19.757812 -41.457031 20.824219 -38.449219 20.824219 -33.871094 C 20.824219 -31.675781 20.636719 -30.042969 19.945312 -28.539062 C 19.253906 -27.03125 18.1875 -25.777344 16.621094 -24.335938 C 18.316406 -23.394531 19.570312 -21.640625 20.574219 -18.691406 C 21.074219 -17.25 21.324219 -15.367188 21.324219 -13.046875 C 21.324219 -9.597656 20.699219 -6.523438 19.128906 -4.140625 C 17.5625 -1.757812 14.863281 -0.1875 10.851562 0 Z M 9.28125 -27.09375 C 9.847656 -27.09375 11.164062 -27.03125 12.292969 -27.785156 C 13.421875 -28.539062 14.300781 -30.042969 14.300781 -33.242188 C 14.300781 -36.441406 13.421875 -37.945312 12.292969 -38.699219 C 11.164062 -39.453125 9.847656 -39.386719 9.28125 -39.386719 Z M 9.28125 -6.710938 C 9.847656 -6.710938 11.164062 -6.585938 12.292969 -7.402344 C 13.421875 -8.214844 14.300781 -10.035156 14.300781 -13.796875 C 14.300781 -17.5625 13.421875 -19.378906 12.292969 -20.195312 C 11.164062 -21.011719 9.847656 -20.886719 9.28125 -20.886719 Z M 9.28125 -6.710938 "/></g></g></g><g fill="#ffffff" fill-opacity="1"><g transform="translate(110.988386, 175.833497)"><g><path d="M 5.46875 0 L 3.203125 0 L 3.203125 -8.796875 L 0.296875 -8.796875 L 0.296875 -10.6875 L 8.375 -10.6875 L 8.375 -8.796875 L 5.46875 -8.796875 Z M 5.46875 0 "/></g></g><g transform="translate(119.654986, 175.833497)"><g><path d="M 10.046875 -10.6875 L 10.046875 -3.765625 C 10.046875 -2.984375 9.867188 -2.289062 9.515625 -1.6875 C 9.160156 -1.09375 8.648438 -0.640625 7.984375 -0.328125 C 7.316406 -0.015625 6.523438 0.140625 5.609375 0.140625 C 4.234375 0.140625 3.164062 -0.207031 2.40625 -0.90625 C 1.644531 -1.613281 1.265625 -2.578125 1.265625 -3.796875 L 1.265625 -10.6875 L 3.53125 -10.6875 L 3.53125 -4.140625 C 3.53125 -3.316406 3.695312 -2.710938 4.03125 -2.328125 C 4.363281 -1.941406 4.910156 -1.75 5.671875 -1.75 C 6.410156 -1.75 6.945312 -1.941406 7.28125 -2.328125 C 7.613281 -2.722656 7.78125 -3.332031 7.78125 -4.15625 L 7.78125 -10.6875 Z M 10.046875 -10.6875 "/></g></g><g transform="translate(130.966872, 175.833497)"><g/></g><g transform="translate(134.854419, 175.833497)"><g><path d="M 5.890625 -8.953125 C 5.035156 -8.953125 4.375 -8.628906 3.90625 -7.984375 C 3.4375 -7.347656 3.203125 -6.457031 3.203125 -5.3125 C 3.203125 -2.925781 4.097656 -1.734375 5.890625 -1.734375 C 6.640625 -1.734375 7.546875 -1.921875 8.609375 -2.296875 L 8.609375 -0.40625 C 7.734375 -0.0390625 6.753906 0.140625 5.671875 0.140625 C 4.117188 0.140625 2.929688 -0.328125 2.109375 -1.265625 C 1.285156 -2.210938 0.875 -3.566406 0.875 -5.328125 C 0.875 -6.441406 1.070312 -7.414062 1.46875 -8.25 C 1.875 -9.082031 2.457031 -9.722656 3.21875 -10.171875 C 3.976562 -10.617188 4.867188 -10.84375 5.890625 -10.84375 C 6.921875 -10.84375 7.960938 -10.59375 9.015625 -10.09375 L 8.28125 -8.25 C 7.882812 -8.4375 7.484375 -8.597656 7.078125 -8.734375 C 6.671875 -8.878906 6.273438 -8.953125 5.890625 -8.953125 Z M 5.890625 -8.953125 "/></g></g><g transform="translate(144.390601, 175.833497)"><g><path d="M 1.34375 0 L 1.34375 -10.6875 L 3.609375 -10.6875 L 3.609375 -1.875 L 7.9375 -1.875 L 7.9375 0 Z M 1.34375 0 "/></g></g><g transform="translate(152.845286, 175.833497)"><g><path d="M 10.046875 -10.6875 L 10.046875 -3.765625 C 10.046875 -2.984375 9.867188 -2.289062 9.515625 -1.6875 C 9.160156 -1.09375 8.648438 -0.640625 7.984375 -0.328125 C 7.316406 -0.015625 6.523438 0.140625 5.609375 0.140625 C 4.234375 0.140625 3.164062 -0.207031 2.40625 -0.90625 C 1.644531 -1.613281 1.265625 -2.578125 1.265625 -3.796875 L 1.265625 -10.6875 L 3.53125 -10.6875 L 3.53125 -4.140625 C 3.53125 -3.316406 3.695312 -2.710938 4.03125 -2.328125 C 4.363281 -1.941406 4.910156 -1.75 5.671875 -1.75 C 6.410156 -1.75 6.945312 -1.941406 7.28125 -2.328125 C 7.613281 -2.722656 7.78125 -3.332031 7.78125 -4.15625 L 7.78125 -10.6875 Z M 10.046875 -10.6875 "/></g></g><g transform="translate(164.157171, 175.833497)"><g><path d="M 1.34375 -10.6875 L 4.671875 -10.6875 C 6.179688 -10.6875 7.28125 -10.46875 7.96875 -10.03125 C 8.65625 -9.601562 9 -8.921875 9 -7.984375 C 9 -7.347656 8.847656 -6.820312 8.546875 -6.40625 C 8.242188 -6 7.847656 -5.753906 7.359375 -5.671875 L 7.359375 -5.59375 C 8.035156 -5.445312 8.519531 -5.164062 8.8125 -4.75 C 9.113281 -4.332031 9.265625 -3.78125 9.265625 -3.09375 C 9.265625 -2.125 8.910156 -1.363281 8.203125 -0.8125 C 7.503906 -0.269531 6.550781 0 5.34375 0 L 1.34375 0 Z M 3.609375 -6.453125 L 4.921875 -6.453125 C 5.535156 -6.453125 5.976562 -6.546875 6.25 -6.734375 C 6.53125 -6.929688 6.671875 -7.25 6.671875 -7.6875 C 6.671875 -8.09375 6.519531 -8.382812 6.21875 -8.5625 C 5.925781 -8.738281 5.453125 -8.828125 4.796875 -8.828125 L 3.609375 -8.828125 Z M 3.609375 -4.65625 L 3.609375 -1.875 L 5.09375 -1.875 C 5.707031 -1.875 6.164062 -1.992188 6.46875 -2.234375 C 6.769531 -2.472656 6.921875 -2.835938 6.921875 -3.328125 C 6.921875 -4.210938 6.285156 -4.65625 5.015625 -4.65625 Z M 3.609375 -4.65625 "/></g></g><g transform="translate(174.212181, 175.833497)"><g/></g><g transform="translate(178.099728, 175.833497)"><g><path d="M 10.203125 -5.4375 C 10.203125 -3.6875 9.703125 -2.34375 8.703125 -1.40625 C 7.703125 -0.46875 6.257812 0 4.375 0 L 1.34375 0 L 1.34375 -10.6875 L 4.703125 -10.6875 C 6.441406 -10.6875 7.789062 -10.222656 8.75 -9.296875 C 9.71875 -8.378906 10.203125 -7.09375 10.203125 -5.4375 Z M 7.859375 -5.390625 C 7.859375 -7.679688 6.84375 -8.828125 4.8125 -8.828125 L 3.609375 -8.828125 L 3.609375 -1.875 L 4.578125 -1.875 C 6.765625 -1.875 7.859375 -3.046875 7.859375 -5.390625 Z M 7.859375 -5.390625 "/></g></g><g transform="translate(189.177776, 175.833497)"><g><path d="M 7.5 0 L 1.34375 0 L 1.34375 -10.6875 L 7.5 -10.6875 L 7.5 -8.828125 L 3.609375 -8.828125 L 3.609375 -6.484375 L 7.234375 -6.484375 L 7.234375 -4.625 L 3.609375 -4.625 L 3.609375 -1.875 L 7.5 -1.875 Z M 7.5 0 "/></g></g><g transform="translate(197.559386, 175.833497)"><g><path d="M 3.609375 -5.65625 L 4.359375 -5.65625 C 5.054688 -5.65625 5.578125 -5.789062 5.921875 -6.0625 C 6.265625 -6.34375 6.4375 -6.742188 6.4375 -7.265625 C 6.4375 -7.796875 6.289062 -8.1875 6 -8.4375 C 5.707031 -8.695312 5.253906 -8.828125 4.640625 -8.828125 L 3.609375 -8.828125 Z M 8.734375 -7.359375 C 8.734375 -6.203125 8.375 -5.316406 7.65625 -4.703125 C 6.9375 -4.097656 5.910156 -3.796875 4.578125 -3.796875 L 3.609375 -3.796875 L 3.609375 0 L 1.34375 0 L 1.34375 -10.6875 L 4.765625 -10.6875 C 6.054688 -10.6875 7.039062 -10.40625 7.71875 -9.84375 C 8.394531 -9.289062 8.734375 -8.460938 8.734375 -7.359375 Z M 8.734375 -7.359375 "/></g></g><g transform="translate(206.956728, 175.833497)"><g><path d="M 11.046875 -5.359375 C 11.046875 -3.585938 10.601562 -2.226562 9.71875 -1.28125 C 8.84375 -0.332031 7.585938 0.140625 5.953125 0.140625 C 4.316406 0.140625 3.0625 -0.332031 2.1875 -1.28125 C 1.3125 -2.226562 0.875 -3.59375 0.875 -5.375 C 0.875 -7.15625 1.3125 -8.515625 2.1875 -9.453125 C 3.070312 -10.390625 4.332031 -10.859375 5.96875 -10.859375 C 7.613281 -10.859375 8.867188 -10.382812 9.734375 -9.4375 C 10.609375 -8.488281 11.046875 -7.128906 11.046875 -5.359375 Z M 3.25 -5.359375 C 3.25 -4.160156 3.472656 -3.257812 3.921875 -2.65625 C 4.378906 -2.050781 5.054688 -1.75 5.953125 -1.75 C 7.765625 -1.75 8.671875 -2.953125 8.671875 -5.359375 C 8.671875 -7.765625 7.769531 -8.96875 5.96875 -8.96875 C 5.070312 -8.96875 4.394531 -8.660156 3.9375 -8.046875 C 3.476562 -7.441406 3.25 -6.546875 3.25 -5.359375 Z M 3.25 -5.359375 "/></g></g><g transform="translate(218.867822, 175.833497)"><g><path d="M 3.609375 -5.9375 L 4.34375 -5.9375 C 5.0625 -5.9375 5.585938 -6.054688 5.921875 -6.296875 C 6.265625 -6.535156 6.4375 -6.910156 6.4375 -7.421875 C 6.4375 -7.929688 6.257812 -8.289062 5.90625 -8.5 C 5.5625 -8.71875 5.023438 -8.828125 4.296875 -8.828125 L 3.609375 -8.828125 Z M 3.609375 -4.09375 L 3.609375 0 L 1.34375 0 L 1.34375 -10.6875 L 4.453125 -10.6875 C 5.910156 -10.6875 6.988281 -10.421875 7.6875 -9.890625 C 8.382812 -9.359375 8.734375 -8.554688 8.734375 -7.484375 C 8.734375 -6.859375 8.554688 -6.300781 8.203125 -5.8125 C 7.859375 -5.320312 7.367188 -4.9375 6.734375 -4.65625 C 8.347656 -2.25 9.394531 -0.695312 9.875 0 L 7.375 0 L 4.8125 -4.09375 Z M 3.609375 -4.09375 "/></g></g><g transform="translate(228.747453, 175.833497)"><g><path d="M 5.46875 0 L 3.203125 0 L 3.203125 -8.796875 L 0.296875 -8.796875 L 0.296875 -10.6875 L 8.375 -10.6875 L 8.375 -8.796875 L 5.46875 -8.796875 Z M 5.46875 0 "/></g></g><g transform="translate(237.414053, 175.833497)"><g><path d="M 1.34375 0 L 1.34375 -10.6875 L 3.609375 -10.6875 L 3.609375 0 Z M 1.34375 0 "/></g></g><g transform="translate(242.368483, 175.833497)"><g><path d="M 7.4375 -10.6875 L 9.734375 -10.6875 L 6.09375 0 L 3.625 0 L 0 -10.6875 L 2.28125 -10.6875 L 4.296875 -4.328125 C 4.410156 -3.953125 4.523438 -3.515625 4.640625 -3.015625 C 4.765625 -2.515625 4.84375 -2.164062 4.875 -1.96875 C 4.925781 -2.414062 5.109375 -3.203125 5.421875 -4.328125 Z M 7.4375 -10.6875 "/></g></g><g transform="translate(252.094659, 175.833497)"><g><path d="M 11.046875 -5.359375 C 11.046875 -3.585938 10.601562 -2.226562 9.71875 -1.28125 C 8.84375 -0.332031 7.585938 0.140625 5.953125 0.140625 C 4.316406 0.140625 3.0625 -0.332031 2.1875 -1.28125 C 1.3125 -2.226562 0.875 -3.59375 0.875 -5.375 C 0.875 -7.15625 1.3125 -8.515625 2.1875 -9.453125 C 3.070312 -10.390625 4.332031 -10.859375 5.96875 -10.859375 C 7.613281 -10.859375 8.867188 -10.382812 9.734375 -9.4375 C 10.609375 -8.488281 11.046875 -7.128906 11.046875 -5.359375 Z M 3.25 -5.359375 C 3.25 -4.160156 3.472656 -3.257812 3.921875 -2.65625 C 4.378906 -2.050781 5.054688 -1.75 5.953125 -1.75 C 7.765625 -1.75 8.671875 -2.953125 8.671875 -5.359375 C 8.671875 -7.765625 7.769531 -8.96875 5.96875 -8.96875 C 5.070312 -8.96875 4.394531 -8.660156 3.9375 -8.046875 C 3.476562 -7.441406 3.25 -6.546875 3.25 -5.359375 Z M 3.25 -5.359375 "/></g></g></g></svg>